<svg width="46" height="46" viewBox="0 0 46 46" fill="none" xmlns="http://www.w3.org/2000/svg">
<path d="M40.25 0H5.75C2.57408 0 0 2.57408 0 5.75V40.25C0 43.424 2.57408 46 5.75 46H40.25C43.424 46 46 43.424 46 40.25V5.75C46 2.57408 43.424 0 40.25 0ZM20.01 34.845C20.01 36.3687 18.7737 37.605 17.25 37.605H8.74C7.21625 37.605 5.98 36.3668 5.98 34.845V8.74C5.98 7.21625 7.21625 5.98 8.74 5.98H17.25C18.7737 5.98 20.01 7.21625 20.01 8.74V34.845ZM40.02 23.345C40.02 24.8668 38.7838 26.105 37.26 26.105H28.75C27.2262 26.105 25.99 24.8668 25.99 23.345V8.74C25.99 7.21625 27.2282 5.98 28.75 5.98H37.26C38.7838 5.98 40.02 7.21625 40.02 8.74V23.345Z" fill="#0079C0"/>
</svg>
